<svg width="48" height="48" viewBox="0 0 48 48" fill="none" xmlns="http://www.w3.org/2000/svg">
  <!-- <style>
    @media (prefers-color-scheme: dark) {
      g {
        fill: white;
        stroke: white;
      }
    }
  </style> -->
  <g>
    <path d="M44.3673 26.9619C43.5905 27.1481 42.934 27.5369 42.1279 27.6153C41.3646 27.7052 40.5934 27.7052 39.8301 27.6153C39.1809 27.5222 38.5448 27.3522 37.9353 27.1089C37.8183 27.0599 36.684 26.6025 36.71 26.4554C36.8526 25.6718 36.9244 24.8768 36.9245 24.0801V23.9462C36.9256 23.8476 36.9482 23.7505 36.9907 23.6617C37.0332 23.5729 37.0946 23.4945 37.1706 23.4322C37.2466 23.3699 37.3352 23.3251 37.4303 23.3009C37.5253 23.2768 37.6245 23.274 37.7208 23.2927C37.8873 23.3201 38.0558 23.3343 38.2246 23.3352C38.6202 23.3348 39.0118 23.2551 39.3763 23.1005C39.7409 22.946 40.0711 22.7198 40.3475 22.4352C40.6239 22.1506 40.841 21.8134 40.986 21.4434C41.131 21.0733 41.201 20.6779 41.1919 20.2802C41.1624 19.5135 40.8436 18.7868 40.3003 18.2479C39.7569 17.709 39.0298 17.3982 38.2668 17.3789C37.5765 17.3664 36.9037 17.5977 36.3655 18.0323C36.2892 18.096 36.1997 18.1418 36.1036 18.1665C36.0076 18.1912 35.9072 18.1941 35.8099 18.175C35.7125 18.156 35.6206 18.1154 35.5408 18.0562C35.4609 17.9971 35.3952 17.9209 35.3482 17.833C34.8257 16.8716 34.1847 15.9803 33.4404 15.18C33.6711 14.8904 33.9574 14.6504 34.2822 14.4743C34.7945 14.1291 35.3274 13.8159 35.878 13.5365C36.5653 13.1898 37.2849 12.9118 38.0263 12.7067C38.7601 12.5587 39.4074 12.1284 39.8301 11.5076C40.0969 11.1312 40.2718 10.6969 40.3404 10.2398C40.4013 9.81732 40.3713 9.38658 40.2524 8.97672C40.1335 8.56685 39.9285 8.18742 39.6512 7.86405C39.3739 7.54069 39.0308 7.28093 38.6451 7.10233C38.2593 6.92373 37.84 6.83044 37.4153 6.82878C36.6912 6.84436 35.996 7.1175 35.4534 7.59965C34.9107 8.0818 34.5556 8.74174 34.4512 9.46222C34.3996 9.93981 34.3027 10.4114 34.1619 10.8704C33.9739 11.4102 33.7446 11.9345 33.4761 12.4387C33.4176 12.5466 32.4004 14.2129 32.2606 14.0953C31.2368 13.2284 30.0856 12.5263 28.848 12.014C28.7761 11.9839 28.7142 11.9339 28.6696 11.8698C28.625 11.8057 28.5995 11.7301 28.5961 11.6519C28.5927 11.5737 28.6115 11.4962 28.6504 11.4284C28.6892 11.3606 28.7465 11.3053 28.8155 11.269C29.3413 10.9748 29.7657 10.5268 30.0324 9.98453C30.2992 9.44221 30.3955 8.83119 30.3088 8.23253C30.222 7.63387 29.9563 7.07587 29.5468 6.63257C29.1373 6.18927 28.6033 5.88162 28.0159 5.75043C27.4284 5.61925 26.8151 5.67073 26.2574 5.89805C25.6997 6.12537 25.224 6.51779 24.8933 7.02323C24.5626 7.52867 24.3926 8.12325 24.4058 8.72808C24.419 9.33291 24.6149 9.9194 24.9674 10.4097C25.0128 10.4725 25.0397 10.547 25.0448 10.6244C25.05 10.7019 25.0333 10.7793 24.9966 10.8476C24.9599 10.9159 24.9047 10.9724 24.8374 11.0106C24.7701 11.0487 24.6935 11.067 24.6163 11.0632C24.3986 11.0632 24.1776 11.0469 23.9663 11.0469C23.4132 11.0469 22.8607 11.0818 22.312 11.1514C22.1374 10.7798 22.0275 10.3809 21.987 9.97192C21.883 9.45242 21.792 8.92639 21.7367 8.40035C21.5937 7.01828 21.4605 5.83552 22.0032 4.57435C22.4745 3.4798 22.6533 2.40159 21.9512 1.36259C21.6346 0.868696 21.1795 0.480185 20.6434 0.246112C20.1073 0.0120385 19.5142 -0.0571005 18.9391 0.0474241C18.3639 0.151949 17.8324 0.42545 17.4118 0.833395C16.9911 1.24134 16.7001 1.76544 16.5756 2.33951C16.4205 3.04533 16.5256 3.78375 16.8713 4.41751C17.2613 5.12325 17.9179 5.56107 18.4444 6.13938C18.8586 6.5808 19.2368 7.055 19.5754 7.55739C19.9194 8.0971 20.2028 8.67348 20.4204 9.27599C20.4887 9.46222 21.0705 11.3801 20.9795 11.3997C19.5989 11.725 18.2812 12.2769 17.0793 13.0334C16.9883 13.0882 16.8844 13.1178 16.7782 13.1191C16.6721 13.1205 16.5675 13.0936 16.4751 13.0411C16.3826 12.9887 16.3057 12.9126 16.2519 12.8206C16.1982 12.7285 16.1697 12.6238 16.1693 12.5171C16.1677 12.5052 16.1677 12.4931 16.1693 12.4812C16.1444 11.9166 15.9604 11.3708 15.6389 10.9073C15.3174 10.4437 14.8715 10.0815 14.3531 9.86281C13.8348 9.64412 13.2653 9.57795 12.711 9.67201C12.1567 9.76606 11.6404 10.0165 11.2221 10.3941C10.8039 10.7717 10.501 11.2609 10.3486 11.8049C10.1962 12.3489 10.2007 12.9251 10.3615 13.4667C10.5223 14.0082 10.8328 14.4926 11.2568 14.8636C11.6808 15.2346 12.201 15.4769 12.7567 15.5623L12.9549 15.5851C13.06 15.5949 13.1607 15.6323 13.2468 15.6936C13.3329 15.7549 13.4015 15.8378 13.4456 15.9342C13.4898 16.0305 13.5079 16.1369 13.4982 16.2425C13.4885 16.3481 13.4514 16.4493 13.3905 16.5359C12.7127 17.4867 12.166 18.5253 11.7654 19.6235C8.73305 19.4471 6.62698 17.5292 5.26518 16.1014L5.01167 15.8335C4.59108 15.4316 4.06252 15.1625 3.49137 15.0595C2.92023 14.9565 2.33157 15.024 1.79824 15.2539C1.26491 15.4837 0.810314 15.8657 0.4907 16.3525C0.171087 16.8394 0.00048365 17.4098 0 17.9931C0 19.9143 1.95007 21.4271 3.79613 20.8422C4.15364 20.7279 4.4884 20.5645 4.85242 20.4763C5.98345 20.1986 7.17949 20.3195 8.32678 20.4142C9.30182 20.4959 10.4914 20.5874 11.3169 21.1526C11.0982 22.1173 10.9891 23.1038 10.9919 24.0932C10.9919 24.482 11.0081 24.8675 11.0439 25.2498C11.0515 25.3255 11.0377 25.4018 11.0041 25.47C10.9706 25.5382 10.9186 25.5955 10.8542 25.6354C10.7898 25.6752 10.7155 25.6961 10.6398 25.6955C10.5641 25.6949 10.4902 25.6729 10.4264 25.6321C9.96826 25.3548 9.4433 25.209 8.90855 25.2106C8.51066 25.2108 8.11687 25.2914 7.75056 25.4476C7.38424 25.6037 7.05287 25.8323 6.7761 26.1197C6.49933 26.407 6.28282 26.7474 6.1394 27.1205C5.99598 27.4936 5.92858 27.8919 5.9412 28.2917C5.97526 29.0633 6.30221 29.7924 6.85478 30.3291C7.40736 30.8657 8.14352 31.1691 8.9118 31.1767C9.44281 31.177 9.96418 31.0341 10.4215 30.7628C10.8789 30.4916 11.2554 30.1019 11.5119 29.6345C11.5451 29.5678 11.5961 29.5117 11.6593 29.4725C11.7224 29.4332 11.7952 29.4125 11.8694 29.4125C11.9436 29.4125 12.0164 29.4332 12.0795 29.4725C12.1427 29.5117 12.1937 29.5678 12.2269 29.6345C12.7953 30.8483 13.5462 31.9668 14.4532 32.9508C14.1802 33.5455 13.1044 33.967 12.5747 34.2414C12.1164 34.4799 11.6484 34.6988 11.1804 34.8949C10.7124 35.0909 10.1891 35.1661 9.70483 35.3458C9.26851 35.5126 8.87758 35.7808 8.56386 36.1283C8.25015 36.4759 8.02252 36.893 7.89954 37.3457C7.77655 37.7984 7.76167 38.274 7.85611 38.7336C7.95056 39.1932 8.15165 39.6238 8.44302 39.9905C8.73439 40.3572 9.10779 40.6495 9.53281 40.8436C9.95783 41.0378 10.4225 41.1282 10.8888 41.1077C11.3552 41.0871 11.8102 40.9561 12.2167 40.7253C12.6231 40.4945 12.9696 40.1704 13.228 39.7795C13.761 38.9365 13.8455 37.8191 14.1802 36.8814C14.5097 35.8668 14.9825 34.9051 15.5843 34.0258C16.0403 34.4172 16.5236 34.7754 17.0306 35.0974C18.0616 35.7598 19.1811 36.2713 20.3554 36.6167C20.5245 36.6668 20.6967 36.7126 20.8722 36.754C20.7978 37.8827 20.4724 38.9802 19.9199 39.9657C19.5754 40.6797 19.1152 41.3312 18.5581 41.8934C18.0446 42.3737 17.4368 42.7658 17.0208 43.3474C15.6395 45.2751 17.1606 48 19.4617 48C21.4117 48 22.6338 46.2095 22.3445 44.3602C22.0236 42.4396 21.9146 40.4892 22.0195 38.5444C22.0195 38.3582 22.052 38.1687 22.0715 37.9825C22.0696 37.6431 22.1631 37.3101 22.3413 37.0219C22.8802 37.0907 23.423 37.1245 23.9663 37.1232C25.1752 37.1252 26.3784 36.9581 27.5414 36.6265C27.6292 36.6004 27.7202 36.571 27.8112 36.5481C27.7169 36.6102 27.6259 36.6755 27.5414 36.7442C26.9806 37.205 26.6047 37.8543 26.4829 38.5721C26.3612 39.2899 26.5019 40.0278 26.8791 40.6494C27.2563 41.271 27.8444 41.7345 28.535 41.9542C29.2256 42.1739 29.9719 42.135 30.6362 41.8446C31.3005 41.5543 31.8378 41.0321 32.149 40.3746C32.4602 39.7171 32.5242 38.9685 32.3292 38.2672C32.1342 37.566 31.6934 36.9593 31.0882 36.5592C30.483 36.1591 29.7542 35.9927 29.0365 36.0907C29.6758 35.8139 30.292 35.4862 30.8793 35.1105C31.4743 34.7341 32.0374 34.309 32.5629 33.8395C33.6386 34.5387 34.1034 37.6851 34.4219 38.8614C34.4219 38.9235 34.4544 38.9823 34.4707 39.0345C34.6636 39.6342 35.0405 40.157 35.5474 40.528C36.0542 40.8989 36.6648 41.099 37.2918 41.0995C37.887 41.0903 38.4652 40.8988 38.9493 40.5506C41.1854 38.9823 40.2949 35.9763 38.2538 35.3229C37.7565 35.1595 37.23 35.1203 36.7425 34.9112C36.255 34.7021 35.787 34.4734 35.3287 34.2251C35.2085 34.163 33.3786 33.0652 33.4924 32.941C34.6447 31.6974 35.5416 30.2373 36.1315 28.6445C37.2008 28.4975 38.4586 29.0431 39.4108 29.4646C40.1004 29.7684 40.7626 30.1313 41.3902 30.5494C41.9726 30.9751 42.5164 31.4518 43.0152 31.9739C43.5358 32.494 44.2319 32.7984 44.9653 32.8267C45.3844 32.8372 45.8009 32.7581 46.1873 32.5947C46.5737 32.4313 46.9212 32.1872 47.2067 31.8787C47.4923 31.5702 47.7095 31.2042 47.8438 30.805C47.9782 30.4058 48.0267 29.9825 47.9861 29.5631C47.9455 29.1436 47.8168 28.7376 47.6085 28.3719C47.4002 28.0062 47.117 27.6891 46.7776 27.4417C46.4383 27.1943 46.0506 27.0221 45.6401 26.9365C45.2296 26.851 44.8057 26.8541 44.3965 26.9455L44.3673 26.9619ZM30.8533 33.4377C28.4105 35.2618 25.3511 36.0448 22.338 35.6169C21.6646 35.5246 21.0009 35.3703 20.3554 35.1563C17.8884 34.3462 15.7636 32.7265 14.322 30.5571C12.8803 28.3877 12.2053 25.7943 12.4053 23.1931C12.6053 20.5919 13.6687 18.1336 15.4248 16.2127C17.181 14.2917 19.5282 13.0196 22.0897 12.6002C24.6512 12.1809 27.2786 12.6387 29.5503 13.9002C31.822 15.1617 33.6063 17.1538 34.617 19.5568C35.6276 21.9599 35.806 24.6346 35.1235 27.1517C34.441 29.6689 32.9372 31.8826 30.8533 33.4377Z" fill="black"/>
    <path d="M25.676 26.4877V35.6035C24.5691 35.7646 23.445 35.7646 22.3381 35.6035V24.939L22.5104 24.8639L25.676 26.4877Z" fill="black"/>
    <path d="M20.3554 25.7886V35.1559C19.155 34.7626 18.0273 34.1731 17.0176 33.4112V27.2033L20.3554 25.7886Z" fill="black"/>
    <path d="M30.853 28.7355V33.4371C29.8415 34.1931 28.7141 34.778 27.5151 35.1688V28.7355H30.853Z" fill="black"/>
    <path d="M11.9863 26.8472L22.5102 21.8744L29.1859 25.3148L35.3774 21.2307" stroke="black" stroke-miterlimit="10"/>
    <path d="M22.5528 23.2364C23.2313 23.2364 23.7813 22.6835 23.7813 22.0014C23.7813 21.3193 23.2313 20.7664 22.5528 20.7664C21.8743 20.7664 21.3242 21.3193 21.3242 22.0014C21.3242 22.6835 21.8743 23.2364 22.5528 23.2364Z" fill="black"/>
    <path d="M29.1861 26.2881C29.8646 26.2881 30.4146 25.7351 30.4146 25.053C30.4146 24.3709 29.8646 23.818 29.1861 23.818C28.5076 23.818 27.9575 24.3709 27.9575 25.053C27.9575 25.7351 28.5076 26.2881 29.1861 26.2881Z" fill="black"/>
    <path d="M35.6298 24.0138C35.6298 30.4351 30.4228 35.6411 23.9989 35.6411C17.575 35.6411 12.3679 30.4351 12.3679 24.0138C12.3679 17.5926 17.575 12.3866 23.9989 12.3866C30.4228 12.3866 35.6298 17.5926 35.6298 24.0138Z" stroke="black" stroke-width="2"/>
  </g>
</svg>
